<svg width="290" height="186" viewBox="0 0 290 186" fill="none" xmlns="http://www.w3.org/2000/svg">
<path d="M289.474 40.0304L12.2202 40.0303V185.848L289.474 185.848V40.0304Z" fill="#083C19"/>
<path d="M289.474 28.4395H0.657715V40.0304H289.474V28.4395Z" fill="#021B0B"/>
<path d="M0.657715 28.4394L49.2427 0.841797H289.474V28.4394H0.657715Z" fill="#0A4F21"/>
<path d="M187.598 147.09H123.715V135.029C123.715 123.376 129.132 117.346 143.851 112.644L162.454 106.716C166.849 105.285 168.587 103.956 168.587 100.787C168.587 97.312 167.258 95.0633 156.832 95.0633C145.384 95.0633 142.829 97.9253 142.829 104.16V105.489H124.022V103.956C124.022 90.1571 133.425 77.5848 157.548 77.5848C179.217 77.5848 187.803 87.0907 187.803 101.094C187.803 113.973 179.217 120.003 166.951 123.07L151.619 126.852C147.122 127.976 143.953 128.691 143.953 132.167L163.169 129.816H187.598V147.09Z" fill="#FFFFFA"/>
<path d="M12.2202 39.6238H150.774H220.051H289.328V185.435L220.051 50.075H150.774H12.2202V39.6238Z" fill="black" fill-opacity="0.3"/>
<ellipse cx="156.386" cy="14.6406" rx="78.6055" ry="5.40771" fill="black" fill-opacity="0.3"/>
</svg>
