<svg width="291" height="154" viewBox="0 0 291 154" fill="none" xmlns="http://www.w3.org/2000/svg">
<path d="M279.409 39.6428H0.865234V149.011H279.409V39.6428Z" fill="#083C19"/>
<path d="M0.865234 39.6428H279.41V50.094H264.536H140.138H0.865234V39.6428Z" fill="black" fill-opacity="0.3"/>
<path d="M290.279 28.052H0.865234V39.643H290.279V28.052Z" fill="#021B0B"/>
<path d="M0.865234 28.0519V0.454346H241.797L290.255 28.0519H0.865234Z" fill="#0A4F21"/>
<path d="M135.036 125.074C111.936 125.074 101.101 116.386 101.101 100.134V98.4987H121.544V100.339C121.544 105.449 121.952 106.676 134.116 106.676C145.768 106.676 148.834 105.654 148.834 101.463C148.834 98.0898 146.892 96.9655 142.395 96.9655H122.055V81.2247H140.964C144.746 81.2247 145.973 79.8959 145.973 77.3406C145.973 74.0697 144.133 72.9454 133.911 72.9454C123.383 72.9454 121.544 74.1719 121.544 79.2826V79.5892H101.101V79.487C101.101 64.2573 112.447 54.547 135.751 54.547C154.763 54.547 165.086 60.5776 165.086 72.9454C165.086 80.918 160.282 86.0287 151.185 87.0508V88.3796C161.407 89.5039 168.357 94.3079 168.357 104.734C168.357 118.226 156.092 125.074 135.036 125.074Z" fill="#FFFFFA"/>
<path opacity="0.1" d="M279.41 39.6428H0.865234V54.0344H279.41V39.6428Z" fill="#021B0A"/>
</svg>
