<svg width="290" height="150" viewBox="0 0 290 150" fill="none" xmlns="http://www.w3.org/2000/svg">
<path d="M278.544 40.0667H0V149.435H278.544V40.0667Z" fill="#083C19"/>
<path d="M289.414 28.4758H0V40.0668H289.414V28.4758Z" fill="#021B0B"/>
<path d="M0 28.4757V0.878174H240.932L289.39 28.4757H0Z" fill="#0A4F21"/>
<path d="M134.17 125.498C111.07 125.498 100.236 116.81 100.236 100.558V98.9226H120.678V100.762C120.678 105.873 121.087 107.1 133.25 107.1C144.903 107.1 147.969 106.078 147.969 101.887C147.969 98.5138 146.027 97.3894 141.53 97.3894H121.189V81.6486H140.099C143.881 81.6486 145.107 80.3198 145.107 77.7645C145.107 74.4937 143.267 73.3693 133.046 73.3693C122.518 73.3693 120.678 74.5959 120.678 79.7065V80.0132H100.236V79.911C100.236 64.6812 111.581 54.9709 134.886 54.9709C153.898 54.9709 164.221 61.0015 164.221 73.3693C164.221 81.342 159.417 86.4526 150.32 87.4748V88.8035C160.541 89.9279 167.492 94.7319 167.492 105.158C167.492 118.65 155.226 125.498 134.17 125.498Z" fill="#FFFFFA"/>
<path opacity="0.1" d="M278.545 40.0667H0V54.4582H278.545V40.0667Z" fill="#021B0A"/>
<ellipse cx="133.691" cy="14.677" rx="78.6055" ry="5.40771" fill="black" fill-opacity="0.3"/>
</svg>
