<svg width="289" height="190" viewBox="0 0 289 190" fill="none" xmlns="http://www.w3.org/2000/svg">
<path d="M288.816 39.1937L11.5625 39.1936V185.011L288.816 185.011V39.1937Z" fill="#083C19"/>
<path d="M287.486 27.6028H0V39.1937H287.486V27.6028Z" fill="#021B0B"/>
<path d="M0 27.6027L48.3612 0.00512695H287.486V27.6027H0Z" fill="#0A4F21"/>
<path d="M186.941 146.253H123.057V134.192C123.057 122.54 128.475 116.509 143.193 111.807L161.796 105.879C166.191 104.448 167.929 103.119 167.929 99.9506C167.929 96.4753 166.6 94.2266 156.174 94.2266C144.726 94.2266 142.171 97.0886 142.171 103.324V104.652H123.364V103.119C123.364 89.3204 132.768 76.7482 156.89 76.7482C178.559 76.7482 187.145 86.254 187.145 100.257C187.145 113.136 178.559 119.167 166.293 122.233L150.962 126.015C146.464 127.139 143.296 127.855 143.296 131.33L162.512 128.979H186.941V146.253Z" fill="#FFFFFA"/>
<path d="M12.043 39.3684H149.775H218.642H287.508V185.18V204.064L218.642 49.8196H149.775H12.043V39.3684Z" fill="black" fill-opacity="0.3"/>
</svg>
