<svg width="94" height="109" viewBox="0 0 94 109" fill="none" xmlns="http://www.w3.org/2000/svg">
<g clip-path="url(#clip0_77_4987)">
<path d="M78.4909 63.8535H16.3544C12.651 63.8535 9.65222 66.8523 9.65222 70.5557H85.1931C85.1931 66.8523 82.1944 63.8535 78.4909 63.8535Z" fill="white"/>
<path d="M92.7863 74.627H2.06358V108.091H92.7863V74.627Z" fill="white"/>
<path d="M93.905 71.7228H0.935215V73.5001H93.905V71.7228Z" fill="white"/>
<path d="M64.5998 55.9762H30.2509V62.7254H64.5998V55.9762Z" fill="white"/>
<path d="M64.5998 38.3591H30.2509V54.8563H64.5998V38.3591Z" fill="white"/>
<path d="M50.7489 13.633V11.5973H49.778V7.51805C49.778 6.33577 48.9089 5.37271 47.7736 5.20046V2.11556H48.8698V1.41089H47.7736V0.244263H47.0689V1.41089H45.9728V2.11556H47.0689V5.20046C45.9336 5.37271 45.0645 6.33577 45.0645 7.51805V11.5973H44.0936V13.633C36.2013 15.1833 30.2429 22.1361 30.2429 30.4825V37.2317H31.942V32.5731C31.942 31.7196 32.631 31.0306 33.4844 31.0306C34.3378 31.0306 35.0269 31.7196 35.0269 32.5731V37.2317H37.5167V32.5731C37.5167 31.7196 38.2057 31.0306 39.0591 31.0306C39.9126 31.0306 40.6016 31.7196 40.6016 32.5731V37.2317H43.0914V32.5731C43.0914 31.7196 43.7805 31.0306 44.6339 31.0306C45.4873 31.0306 46.1763 31.7196 46.1763 32.5731V37.2317H48.6662V32.5731C48.6662 31.7196 49.3552 31.0306 50.2086 31.0306C51.0621 31.0306 51.7511 31.7196 51.7511 32.5731V37.2317H54.2409V32.5731C54.2409 31.7196 54.9299 31.0306 55.7834 31.0306C56.6368 31.0306 57.3258 31.7196 57.3258 32.5731V37.2317H59.8157V32.5731C59.8157 31.7196 60.5047 31.0306 61.3581 31.0306C62.2116 31.0306 62.9006 31.7196 62.9006 32.5731V37.2317H64.5996V30.4825C64.5996 22.1361 58.649 15.1833 50.7489 13.633ZM48.3765 11.5973H46.4739V9.10748C46.4739 8.58289 46.8967 8.16009 47.4213 8.16009C47.9459 8.16009 48.3687 8.58289 48.3687 9.10748V11.5973H48.3765Z" fill="white"/>
</g>
<defs>
<clipPath id="clip0_77_4987">
<rect width="92.9698" height="107.838" fill="white" transform="translate(0.935425 0.244141)"/>
</clipPath>
</defs>
</svg>
